<mxfile host="Electron" modified="2023-09-22T11:53:36.207Z" agent="Mozilla/5.0 (Windows NT 10.0; Win64; x64) AppleWebKit/537.36 (KHTML, like Gecko) draw.io/21.7.5 Chrome/114.0.5735.289 Electron/25.8.1 Safari/537.36" etag="TJGIOYVMtgDmVUUTzHSO" version="21.7.5" type="device">
  <diagram name="第 1 页" id="9aPga3mSMGG6Tqx6lpcI">
    <mxGraphModel dx="1430" dy="1995" grid="1" gridSize="10" guides="1" tooltips="1" connect="1" arrows="1" fold="1" page="1" pageScale="1" pageWidth="827" pageHeight="1169" math="0" shadow="0">
      <root>
        <mxCell id="0" />
        <mxCell id="1" parent="0" />
        <mxCell id="TXjAsQFIcoirsIRa-SRY-11" value="" style="rounded=0;whiteSpace=wrap;html=1;fillColor=#dae8fc;dashed=1;strokeColor=#6c8ebf;" vertex="1" parent="1">
          <mxGeometry x="480" y="-80" width="200" height="140" as="geometry" />
        </mxCell>
        <mxCell id="TXjAsQFIcoirsIRa-SRY-9" value="" style="rounded=0;whiteSpace=wrap;html=1;fillColor=#dae8fc;dashed=1;strokeColor=#6c8ebf;" vertex="1" parent="1">
          <mxGeometry x="260" y="-80" width="200" height="140" as="geometry" />
        </mxCell>
        <mxCell id="TXjAsQFIcoirsIRa-SRY-1" value="" style="rounded=0;whiteSpace=wrap;html=1;fillColor=#dae8fc;dashed=1;strokeColor=#6c8ebf;" vertex="1" parent="1">
          <mxGeometry x="40" y="-80" width="200" height="140" as="geometry" />
        </mxCell>
        <mxCell id="TXjAsQFIcoirsIRa-SRY-2" value="C++" style="text;html=1;align=center;verticalAlign=middle;resizable=0;points=[];autosize=1;strokeColor=none;fillColor=none;fontSize=12;" vertex="1" parent="1">
          <mxGeometry x="40" y="-80" width="50" height="30" as="geometry" />
        </mxCell>
        <mxCell id="TXjAsQFIcoirsIRa-SRY-3" value="struct Vertex&lt;br&gt;{&lt;br&gt;&lt;div style=&quot;&quot;&gt;&amp;nbsp; &amp;nbsp; Float3U position;&lt;br&gt;&lt;/div&gt;&lt;div style=&quot;&quot;&gt;&amp;nbsp; &amp;nbsp; Float3U normal;&lt;br&gt;&lt;/div&gt;&lt;div style=&quot;&quot;&gt;&amp;nbsp; &amp;nbsp; Float3U tangent;&lt;br&gt;&lt;/div&gt;&lt;div style=&quot;&quot;&gt;&amp;nbsp; &amp;nbsp; Float2U texcoord;&lt;/div&gt;&lt;div style=&quot;&quot;&gt;};&lt;/div&gt;" style="text;html=1;align=left;verticalAlign=middle;resizable=0;points=[];autosize=1;strokeColor=none;fillColor=none;" vertex="1" parent="1">
          <mxGeometry x="75" y="-55" width="130" height="110" as="geometry" />
        </mxCell>
        <mxCell id="TXjAsQFIcoirsIRa-SRY-4" value="struct Transform&lt;br&gt;{&lt;br&gt;&lt;div style=&quot;&quot;&gt;&amp;nbsp; &amp;nbsp; Float3U position;&lt;/div&gt;&lt;div style=&quot;&quot;&gt;&amp;nbsp; &amp;nbsp; Float4U rotation;&lt;br&gt;&lt;/div&gt;&amp;nbsp; &amp;nbsp; Float3U scale;&lt;div style=&quot;&quot;&gt;&lt;span style=&quot;background-color: initial;&quot;&gt;};&lt;/span&gt;&lt;br&gt;&lt;/div&gt;" style="text;html=1;align=left;verticalAlign=middle;resizable=0;points=[];autosize=1;strokeColor=none;fillColor=none;" vertex="1" parent="1">
          <mxGeometry x="515" y="-55" width="130" height="100" as="geometry" />
        </mxCell>
        <mxCell id="TXjAsQFIcoirsIRa-SRY-5" value="struct VertexColor&lt;br&gt;{&lt;br&gt;&lt;div style=&quot;&quot;&gt;&amp;nbsp; &amp;nbsp; Float4U color;&lt;/div&gt;&lt;div style=&quot;&quot;&gt;};&lt;/div&gt;" style="text;html=1;align=left;verticalAlign=middle;resizable=0;points=[];autosize=1;strokeColor=none;fillColor=none;" vertex="1" parent="1">
          <mxGeometry x="300" y="-40" width="120" height="70" as="geometry" />
        </mxCell>
        <mxCell id="TXjAsQFIcoirsIRa-SRY-6" value="Vertex Buffer 1" style="rounded=0;whiteSpace=wrap;html=1;fillColor=#d5e8d4;strokeColor=#82b366;" vertex="1" parent="1">
          <mxGeometry x="40" y="-160" width="200" height="60" as="geometry" />
        </mxCell>
        <mxCell id="TXjAsQFIcoirsIRa-SRY-7" value="Vertex Buffer 2" style="rounded=0;whiteSpace=wrap;html=1;fillColor=#d5e8d4;strokeColor=#82b366;" vertex="1" parent="1">
          <mxGeometry x="260" y="-160" width="200" height="60" as="geometry" />
        </mxCell>
        <mxCell id="TXjAsQFIcoirsIRa-SRY-8" value="Vertex Buffer 3" style="rounded=0;whiteSpace=wrap;html=1;fillColor=#d5e8d4;strokeColor=#82b366;" vertex="1" parent="1">
          <mxGeometry x="480" y="-160" width="200" height="60" as="geometry" />
        </mxCell>
        <mxCell id="TXjAsQFIcoirsIRa-SRY-10" value="C++" style="text;html=1;align=center;verticalAlign=middle;resizable=0;points=[];autosize=1;strokeColor=none;fillColor=none;fontSize=12;" vertex="1" parent="1">
          <mxGeometry x="260" y="-80" width="50" height="30" as="geometry" />
        </mxCell>
        <mxCell id="TXjAsQFIcoirsIRa-SRY-12" value="C++" style="text;html=1;align=center;verticalAlign=middle;resizable=0;points=[];autosize=1;strokeColor=none;fillColor=none;fontSize=12;" vertex="1" parent="1">
          <mxGeometry x="480" y="-80" width="50" height="30" as="geometry" />
        </mxCell>
        <mxCell id="TXjAsQFIcoirsIRa-SRY-16" value="" style="rounded=0;whiteSpace=wrap;html=1;dashed=1;fillColor=#fff2cc;align=left;strokeColor=#d6b656;" vertex="1" parent="1">
          <mxGeometry x="40" y="80" width="200" height="100" as="geometry" />
        </mxCell>
        <mxCell id="TXjAsQFIcoirsIRa-SRY-17" value="Input Binding&lt;br&gt;binding slot: 0&lt;br&gt;element size: sizeof(Vertex)&lt;br&gt;input rate: per vertex" style="text;html=1;align=left;verticalAlign=middle;resizable=0;points=[];autosize=1;strokeColor=none;fillColor=none;" vertex="1" parent="1">
          <mxGeometry x="45" y="90" width="170" height="70" as="geometry" />
        </mxCell>
        <mxCell id="TXjAsQFIcoirsIRa-SRY-18" value="" style="rounded=0;whiteSpace=wrap;html=1;dashed=1;fillColor=#fff2cc;align=left;strokeColor=#d6b656;" vertex="1" parent="1">
          <mxGeometry x="260" y="80" width="200" height="100" as="geometry" />
        </mxCell>
        <mxCell id="TXjAsQFIcoirsIRa-SRY-19" value="Input Binding&lt;br&gt;binding slot: 1&lt;br&gt;element size: sizeof(VertexColor)&lt;br&gt;input rate: per instance" style="text;html=1;align=left;verticalAlign=middle;resizable=0;points=[];autosize=1;strokeColor=none;fillColor=none;" vertex="1" parent="1">
          <mxGeometry x="265" y="90" width="200" height="70" as="geometry" />
        </mxCell>
        <mxCell id="TXjAsQFIcoirsIRa-SRY-20" value="" style="rounded=0;whiteSpace=wrap;html=1;dashed=1;fillColor=#fff2cc;align=left;strokeColor=#d6b656;" vertex="1" parent="1">
          <mxGeometry x="480" y="80" width="200" height="100" as="geometry" />
        </mxCell>
        <mxCell id="TXjAsQFIcoirsIRa-SRY-21" value="Input Binding&lt;br&gt;binding slot: 2&lt;br&gt;element size: sizeof(Transform)&lt;br&gt;input rate: per instance" style="text;html=1;align=left;verticalAlign=middle;resizable=0;points=[];autosize=1;strokeColor=none;fillColor=none;" vertex="1" parent="1">
          <mxGeometry x="485" y="90" width="190" height="70" as="geometry" />
        </mxCell>
        <mxCell id="TXjAsQFIcoirsIRa-SRY-22" value="" style="rounded=0;whiteSpace=wrap;html=1;dashed=1;fillColor=#fff2cc;align=left;strokeColor=#d6b656;" vertex="1" parent="1">
          <mxGeometry x="40" y="200" width="200" height="110" as="geometry" />
        </mxCell>
        <mxCell id="TXjAsQFIcoirsIRa-SRY-23" value="Input Attribute&lt;br&gt;semantic name: &quot;POSITION&quot;&lt;br&gt;semantic index: 0&lt;br&gt;location: 0&lt;br&gt;binding slot: 0&lt;br&gt;offset: 0&lt;br&gt;format: rgb32_float" style="text;html=1;align=left;verticalAlign=middle;resizable=0;points=[];autosize=1;strokeColor=none;fillColor=none;" vertex="1" parent="1">
          <mxGeometry x="45" y="200" width="180" height="110" as="geometry" />
        </mxCell>
        <mxCell id="TXjAsQFIcoirsIRa-SRY-24" value="" style="rounded=0;whiteSpace=wrap;html=1;dashed=1;fillColor=#fff2cc;align=left;strokeColor=#d6b656;" vertex="1" parent="1">
          <mxGeometry x="40" y="330" width="200" height="110" as="geometry" />
        </mxCell>
        <mxCell id="TXjAsQFIcoirsIRa-SRY-25" value="Input Attribute&lt;br&gt;semantic name: &quot;NORMAL&quot;&lt;br&gt;semantic index: 0&lt;br&gt;location: 1&lt;br&gt;binding slot: 0&lt;br&gt;offset: 12&lt;br&gt;format: rgb32_float" style="text;html=1;align=left;verticalAlign=middle;resizable=0;points=[];autosize=1;strokeColor=none;fillColor=none;" vertex="1" parent="1">
          <mxGeometry x="45" y="330" width="170" height="110" as="geometry" />
        </mxCell>
        <mxCell id="TXjAsQFIcoirsIRa-SRY-26" value="" style="rounded=0;whiteSpace=wrap;html=1;dashed=1;fillColor=#fff2cc;align=left;strokeColor=#d6b656;" vertex="1" parent="1">
          <mxGeometry x="40" y="460" width="200" height="110" as="geometry" />
        </mxCell>
        <mxCell id="TXjAsQFIcoirsIRa-SRY-27" value="Input Attribute&lt;br&gt;semantic name: &quot;TANGENT&quot;&lt;br&gt;semantic index: 0&lt;br&gt;location: 2&lt;br&gt;binding slot: 0&lt;br&gt;offset: 24&lt;br&gt;format: rgb32_float" style="text;html=1;align=left;verticalAlign=middle;resizable=0;points=[];autosize=1;strokeColor=none;fillColor=none;" vertex="1" parent="1">
          <mxGeometry x="45" y="460" width="180" height="110" as="geometry" />
        </mxCell>
        <mxCell id="TXjAsQFIcoirsIRa-SRY-28" value="" style="rounded=0;whiteSpace=wrap;html=1;dashed=1;fillColor=#fff2cc;align=left;strokeColor=#d6b656;" vertex="1" parent="1">
          <mxGeometry x="40" y="590" width="200" height="110" as="geometry" />
        </mxCell>
        <mxCell id="TXjAsQFIcoirsIRa-SRY-29" value="Input Attribute&lt;br&gt;semantic name: &quot;TEXCOORD&quot;&lt;br&gt;semantic index: 0&lt;br&gt;location: 3&lt;br&gt;binding slot: 0&lt;br&gt;offset: 36&lt;br&gt;format: rg32_float" style="text;html=1;align=left;verticalAlign=middle;resizable=0;points=[];autosize=1;strokeColor=none;fillColor=none;" vertex="1" parent="1">
          <mxGeometry x="45" y="590" width="190" height="110" as="geometry" />
        </mxCell>
        <mxCell id="TXjAsQFIcoirsIRa-SRY-30" value="" style="rounded=0;whiteSpace=wrap;html=1;dashed=1;fillColor=#fff2cc;align=left;strokeColor=#d6b656;" vertex="1" parent="1">
          <mxGeometry x="260" y="200" width="200" height="110" as="geometry" />
        </mxCell>
        <mxCell id="TXjAsQFIcoirsIRa-SRY-31" value="Input Attribute&lt;br&gt;semantic name: &quot;COLOR&quot;&lt;br&gt;semantic index: 0&lt;br&gt;location: 4&lt;br&gt;binding slot: 1&lt;br&gt;offset: 0&lt;br&gt;format: rgba32_float" style="text;html=1;align=left;verticalAlign=middle;resizable=0;points=[];autosize=1;strokeColor=none;fillColor=none;" vertex="1" parent="1">
          <mxGeometry x="265" y="200" width="160" height="110" as="geometry" />
        </mxCell>
        <mxCell id="TXjAsQFIcoirsIRa-SRY-32" value="" style="rounded=0;whiteSpace=wrap;html=1;dashed=1;fillColor=#fff2cc;align=left;strokeColor=#d6b656;" vertex="1" parent="1">
          <mxGeometry x="480" y="200" width="200" height="110" as="geometry" />
        </mxCell>
        <mxCell id="TXjAsQFIcoirsIRa-SRY-33" value="Input Attribute&lt;br&gt;semantic name: &quot;TPOSITION&quot;&lt;br&gt;semantic index: 0&lt;br&gt;location: 5&lt;br&gt;binding slot: 2&lt;br&gt;offset: 0&lt;br&gt;format: rgb32_float" style="text;html=1;align=left;verticalAlign=middle;resizable=0;points=[];autosize=1;strokeColor=none;fillColor=none;" vertex="1" parent="1">
          <mxGeometry x="485" y="200" width="180" height="110" as="geometry" />
        </mxCell>
        <mxCell id="TXjAsQFIcoirsIRa-SRY-35" value="" style="rounded=0;whiteSpace=wrap;html=1;dashed=1;fillColor=#fff2cc;align=left;strokeColor=#d6b656;" vertex="1" parent="1">
          <mxGeometry x="480" y="330" width="200" height="110" as="geometry" />
        </mxCell>
        <mxCell id="TXjAsQFIcoirsIRa-SRY-36" value="Input Attribute&lt;br&gt;semantic name: &quot;TROTATION&quot;&lt;br&gt;semantic index: 0&lt;br&gt;location: 6&lt;br&gt;binding slot: 2&lt;br&gt;offset: 12&lt;br&gt;format: rgba32_float" style="text;html=1;align=left;verticalAlign=middle;resizable=0;points=[];autosize=1;strokeColor=none;fillColor=none;" vertex="1" parent="1">
          <mxGeometry x="485" y="330" width="190" height="110" as="geometry" />
        </mxCell>
        <mxCell id="TXjAsQFIcoirsIRa-SRY-37" value="" style="rounded=0;whiteSpace=wrap;html=1;dashed=1;fillColor=#fff2cc;align=left;strokeColor=#d6b656;" vertex="1" parent="1">
          <mxGeometry x="480" y="460" width="200" height="110" as="geometry" />
        </mxCell>
        <mxCell id="TXjAsQFIcoirsIRa-SRY-38" value="Input Attribute&lt;br&gt;semantic name: &quot;TSCALE&quot;&lt;br&gt;semantic index: 0&lt;br&gt;location: 7&lt;br&gt;binding slot: 2&lt;br&gt;offset: 28&lt;br&gt;format: rgb32_float" style="text;html=1;align=left;verticalAlign=middle;resizable=0;points=[];autosize=1;strokeColor=none;fillColor=none;" vertex="1" parent="1">
          <mxGeometry x="485" y="460" width="170" height="110" as="geometry" />
        </mxCell>
        <mxCell id="TXjAsQFIcoirsIRa-SRY-41" value="" style="rounded=0;whiteSpace=wrap;html=1;fillColor=#ffe6cc;dashed=1;strokeColor=#d79b00;" vertex="1" parent="1">
          <mxGeometry x="700" y="-160" width="230" height="410" as="geometry" />
        </mxCell>
        <mxCell id="TXjAsQFIcoirsIRa-SRY-42" value="&lt;div style=&quot;line-height: 19px;&quot;&gt;&lt;div style=&quot;&quot;&gt;struct MeshVertex&lt;/div&gt;&lt;div style=&quot;&quot;&gt;{&lt;/div&gt;&lt;div style=&quot;&quot;&gt;&amp;nbsp; &amp;nbsp; [[vk::location(&lt;span style=&quot;&quot;&gt;0&lt;/span&gt;)]]&lt;/div&gt;&lt;div style=&quot;&quot;&gt;&amp;nbsp; &amp;nbsp; &lt;span style=&quot;&quot;&gt;float3&lt;/span&gt; position : POSITION;&lt;/div&gt;&lt;div style=&quot;&quot;&gt;&amp;nbsp; &amp;nbsp; [[vk::location(&lt;span style=&quot;&quot;&gt;1&lt;/span&gt;)]]&lt;/div&gt;&lt;div style=&quot;&quot;&gt;&amp;nbsp; &amp;nbsp; &lt;span style=&quot;&quot;&gt;float3&lt;/span&gt; normal : NORMAL;&lt;/div&gt;&lt;div style=&quot;&quot;&gt;&amp;nbsp; &amp;nbsp; [[vk::location(&lt;span style=&quot;&quot;&gt;2&lt;/span&gt;)]]&lt;/div&gt;&lt;div style=&quot;&quot;&gt;&amp;nbsp; &amp;nbsp; &lt;span style=&quot;&quot;&gt;float3&lt;/span&gt; tangent : TANGENT;&lt;/div&gt;&lt;div style=&quot;&quot;&gt;&amp;nbsp; &amp;nbsp; [[vk::location(&lt;span style=&quot;&quot;&gt;3&lt;/span&gt;)]]&lt;/div&gt;&lt;div style=&quot;&quot;&gt;&amp;nbsp; &amp;nbsp; &lt;span style=&quot;&quot;&gt;float2&lt;/span&gt; texcoord : TEXCOORD;&lt;/div&gt;&lt;div style=&quot;&quot;&gt;&amp;nbsp; &amp;nbsp; [[vk::location(&lt;span style=&quot;&quot;&gt;4&lt;/span&gt;)]]&lt;/div&gt;&lt;div style=&quot;&quot;&gt;&amp;nbsp; &amp;nbsp; &lt;span style=&quot;&quot;&gt;float4&lt;/span&gt; color : COLOR;&lt;/div&gt;&lt;div style=&quot;&quot;&gt;&lt;div style=&quot;border-color: var(--border-color); font-size: 12px;&quot;&gt;&amp;nbsp; &amp;nbsp; [[vk::location(5)]]&lt;/div&gt;&lt;div style=&quot;border-color: var(--border-color); font-size: 12px;&quot;&gt;&amp;nbsp; &amp;nbsp;&amp;nbsp;&lt;span style=&quot;border-color: var(--border-color);&quot;&gt;float4&lt;/span&gt;&amp;nbsp;position : TPOSITION;&lt;/div&gt;&lt;div style=&quot;border-color: var(--border-color); font-size: 12px;&quot;&gt;&lt;div style=&quot;border-color: var(--border-color);&quot;&gt;&amp;nbsp; &amp;nbsp; [[vk::location(6)]]&lt;/div&gt;&lt;div style=&quot;border-color: var(--border-color);&quot;&gt;&amp;nbsp; &amp;nbsp;&amp;nbsp;&lt;span style=&quot;border-color: var(--border-color);&quot;&gt;float4&lt;/span&gt;&amp;nbsp;rotation : TROTATION;&lt;/div&gt;&lt;div style=&quot;border-color: var(--border-color);&quot;&gt;&lt;div style=&quot;border-color: var(--border-color);&quot;&gt;&amp;nbsp; &amp;nbsp; [[vk::location(7)]]&lt;/div&gt;&lt;div style=&quot;border-color: var(--border-color);&quot;&gt;&amp;nbsp; &amp;nbsp;&amp;nbsp;&lt;span style=&quot;border-color: var(--border-color);&quot;&gt;float4&lt;/span&gt;&amp;nbsp;scale : TSCALE;&lt;/div&gt;&lt;/div&gt;&lt;/div&gt;&lt;/div&gt;&lt;div style=&quot;&quot;&gt;};&lt;/div&gt;&lt;/div&gt;" style="text;html=1;align=left;verticalAlign=middle;resizable=0;points=[];autosize=1;strokeColor=none;fillColor=none;fontColor=default;labelBackgroundColor=none;" vertex="1" parent="1">
          <mxGeometry x="715" y="-130" width="200" height="370" as="geometry" />
        </mxCell>
        <mxCell id="TXjAsQFIcoirsIRa-SRY-43" value="HLSL" style="text;html=1;align=center;verticalAlign=middle;resizable=0;points=[];autosize=1;strokeColor=none;fillColor=none;fontSize=12;" vertex="1" parent="1">
          <mxGeometry x="700" y="-160" width="50" height="30" as="geometry" />
        </mxCell>
      </root>
    </mxGraphModel>
  </diagram>
</mxfile>
